<?xml version="1.0" encoding="UTF-8" ?>
<svg version="1.1" width="125" height="125" xmlns="http://www.w3.org/2000/svg" shape-rendering="crispEdges">
<rect x="10" y="0" width="1" height="1" fill="#212532" opacity="0.341176" />
<rect x="11" y="0" width="1" height="1" fill="#212532" opacity="0.752941" />
<rect x="12" y="0" width="1" height="1" fill="#212532" opacity="0.937255" />
<rect x="13" y="0" width="1" height="1" fill="#212532" opacity="0.996078" />
<rect x="14" y="0" width="97" height="4" fill="#212532" />
<rect x="111" y="0" width="1" height="1" fill="#212532" opacity="0.996078" />
<rect x="112" y="0" width="1" height="1" fill="#212532" opacity="0.937255" />
<rect x="113" y="0" width="1" height="1" fill="#212532" opacity="0.752941" />
<rect x="114" y="0" width="1" height="1" fill="#212532" opacity="0.341176" />
<rect x="8" y="1" width="1" height="1" fill="#212532" opacity="0.611765" />
<rect x="9" y="1" width="1" height="1" fill="#212532" opacity="0.984314" />
<rect x="10" y="1" width="4" height="3" fill="#212532" />
<rect x="111" y="1" width="4" height="3" fill="#212532" />
<rect x="115" y="1" width="1" height="1" fill="#212532" opacity="0.984314" />
<rect x="116" y="1" width="1" height="1" fill="#212532" opacity="0.611765" />
<rect x="6" y="2" width="1" height="1" fill="#212532" opacity="0.341176" />
<rect x="7" y="2" width="1" height="1" fill="#212532" opacity="0.964706" />
<rect x="8" y="2" width="2" height="3" fill="#212532" />
<rect x="115" y="2" width="2" height="3" fill="#212532" />
<rect x="117" y="2" width="1" height="1" fill="#212532" opacity="0.964706" />
<rect x="118" y="2" width="1" height="1" fill="#212532" opacity="0.341176" />
<rect x="5" y="3" width="1" height="1" fill="#212532" opacity="0.611765" />
<rect x="6" y="3" width="2" height="4" fill="#212532" />
<rect x="117" y="3" width="2" height="4" fill="#212532" />
<rect x="119" y="3" width="1" height="1" fill="#212532" opacity="0.611765" />
<rect x="4" y="4" width="1" height="1" fill="#212532" opacity="0.611765" />
<rect x="5" y="4" width="1" height="5" fill="#212532" />
<rect x="10" y="4" width="1" height="1" fill="#212532" />
<rect x="11" y="4" width="1" height="1" fill="#262B3A" />
<rect x="12" y="4" width="1" height="1" fill="#2D3344" />
<rect x="13" y="4" width="1" height="1" fill="#32394C" />
<rect x="14" y="4" width="97" height="16" fill="#363D52" />
<rect x="111" y="4" width="1" height="1" fill="#32394C" />
<rect x="112" y="4" width="1" height="1" fill="#2D3344" />
<rect x="113" y="4" width="1" height="1" fill="#262B3A" />
<rect x="114" y="4" width="1" height="1" fill="#212532" />
<rect x="119" y="4" width="1" height="5" fill="#212532" />
<rect x="120" y="4" width="1" height="1" fill="#212532" opacity="0.611765" />
<rect x="3" y="5" width="1" height="1" fill="#212532" opacity="0.611765" />
<rect x="4" y="5" width="1" height="6" fill="#212532" />
<rect x="8" y="5" width="1" height="1" fill="#212532" />
<rect x="9" y="5" width="1" height="1" fill="#262B3A" />
<rect x="10" y="5" width="1" height="1" fill="#31374A" />
<rect x="11" y="5" width="3" height="115" fill="#363D52" />
<rect x="111" y="5" width="3" height="115" fill="#363D52" />
<rect x="114" y="5" width="1" height="1" fill="#31374A" />
<rect x="115" y="5" width="1" height="1" fill="#262B3A" />
<rect x="116" y="5" width="1" height="1" fill="#212532" />
<rect x="120" y="5" width="1" height="6" fill="#212532" />
<rect x="121" y="5" width="1" height="1" fill="#212532" opacity="0.611765" />
<rect x="2" y="6" width="1" height="1" fill="#212532" opacity="0.341176" />
<rect x="3" y="6" width="1" height="113" fill="#212532" />
<rect x="8" y="6" width="1" height="1" fill="#2D3344" />
<rect x="9" y="6" width="2" height="113" fill="#363D52" />
<rect x="114" y="6" width="2" height="113" fill="#363D52" />
<rect x="116" y="6" width="1" height="1" fill="#2D3344" />
<rect x="121" y="6" width="1" height="113" fill="#212532" />
<rect x="122" y="6" width="1" height="1" fill="#212532" opacity="0.341176" />
<rect x="2" y="7" width="1" height="1" fill="#212532" opacity="0.964706" />
<rect x="6" y="7" width="1" height="1" fill="#212532" />
<rect x="7" y="7" width="1" height="1" fill="#2E3446" />
<rect x="8" y="7" width="1" height="111" fill="#363D52" />
<rect x="116" y="7" width="1" height="111" fill="#363D52" />
<rect x="117" y="7" width="1" height="1" fill="#2E3446" />
<rect x="118" y="7" width="1" height="1" fill="#212532" />
<rect x="122" y="7" width="1" height="1" fill="#212532" opacity="0.964706" />
<rect x="1" y="8" width="1" height="1" fill="#212532" opacity="0.611765" />
<rect x="2" y="8" width="1" height="109" fill="#212532" />
<rect x="6" y="8" width="1" height="1" fill="#2D3344" />
<rect x="7" y="8" width="1" height="109" fill="#363D52" />
<rect x="117" y="8" width="1" height="109" fill="#363D52" />
<rect x="118" y="8" width="1" height="1" fill="#2D3344" />
<rect x="122" y="8" width="1" height="109" fill="#212532" />
<rect x="123" y="8" width="1" height="1" fill="#212532" opacity="0.611765" />
<rect x="1" y="9" width="1" height="1" fill="#212532" opacity="0.984314" />
<rect x="5" y="9" width="1" height="1" fill="#262B3A" />
<rect x="6" y="9" width="1" height="107" fill="#363D52" />
<rect x="118" y="9" width="1" height="107" fill="#363D52" />
<rect x="119" y="9" width="1" height="1" fill="#262B3A" />
<rect x="123" y="9" width="1" height="1" fill="#212532" opacity="0.984314" />
<rect x="0" y="10" width="1" height="1" fill="#212532" opacity="0.341176" />
<rect x="1" y="10" width="1" height="105" fill="#212532" />
<rect x="5" y="10" width="1" height="1" fill="#31374A" />
<rect x="119" y="10" width="1" height="1" fill="#31374A" />
<rect x="123" y="10" width="1" height="105" fill="#212532" />
<rect x="124" y="10" width="1" height="1" fill="#212532" opacity="0.341176" />
<rect x="0" y="11" width="1" height="1" fill="#212532" opacity="0.752941" />
<rect x="4" y="11" width="1" height="1" fill="#262B3A" />
<rect x="5" y="11" width="1" height="103" fill="#363D52" />
<rect x="119" y="11" width="1" height="103" fill="#363D52" />
<rect x="120" y="11" width="1" height="1" fill="#262B3A" />
<rect x="124" y="11" width="1" height="1" fill="#212532" opacity="0.752941" />
<rect x="0" y="12" width="1" height="1" fill="#212532" opacity="0.937255" />
<rect x="4" y="12" width="1" height="1" fill="#2D3344" />
<rect x="120" y="12" width="1" height="1" fill="#2D3344" />
<rect x="124" y="12" width="1" height="1" fill="#212532" opacity="0.937255" />
<rect x="0" y="13" width="1" height="1" fill="#212532" opacity="0.996078" />
<rect x="4" y="13" width="1" height="1" fill="#32394C" />
<rect x="120" y="13" width="1" height="1" fill="#32394C" />
<rect x="124" y="13" width="1" height="1" fill="#212532" opacity="0.996078" />
<rect x="0" y="14" width="1" height="97" fill="#212532" />
<rect x="4" y="14" width="1" height="97" fill="#363D52" />
<rect x="120" y="14" width="1" height="97" fill="#363D52" />
<rect x="124" y="14" width="1" height="97" fill="#212532" />
<rect x="14" y="20" width="59" height="3" fill="#363D52" />
<rect x="73" y="20" width="9" height="3" fill="#0E0D0E" />
<rect x="82" y="20" width="3" height="3" fill="#363D52" />
<rect x="85" y="20" width="17" height="3" fill="#0E0D0E" />
<rect x="102" y="20" width="9" height="43" fill="#363D52" />
<rect x="14" y="23" width="56" height="17" fill="#363D52" />
<rect x="70" y="23" width="6" height="3" fill="#0E0D0E" />
<rect x="76" y="23" width="3" height="6" fill="#B3AAA1" />
<rect x="79" y="23" width="8" height="6" fill="#0E0D0E" />
<rect x="87" y="23" width="12" height="3" fill="#EBA724" />
<rect x="99" y="23" width="3" height="20" fill="#0E0D0E" />
<rect x="70" y="26" width="3" height="17" fill="#0E0D0E" />
<rect x="73" y="26" width="3" height="3" fill="#B3AAA1" />
<rect x="87" y="26" width="3" height="14" fill="#EBA724" />
<rect x="90" y="26" width="9" height="14" fill="#0A7030" />
<rect x="73" y="29" width="12" height="5" fill="#7C776F" />
<rect x="85" y="29" width="2" height="8" fill="#0E0D0E" />
<rect x="73" y="34" width="12" height="3" fill="#0E0D0E" />
<rect x="73" y="37" width="14" height="3" fill="#EBA724" />
<rect x="14" y="40" width="53" height="10" fill="#363D52" />
<rect x="67" y="40" width="3" height="21" fill="#0E0D0E" />
<rect x="73" y="40" width="26" height="3" fill="#0E0D0E" />
<rect x="70" y="43" width="20" height="3" fill="#B3AAA1" />
<rect x="90" y="43" width="3" height="18" fill="#0E0D0E" />
<rect x="93" y="43" width="3" height="15" fill="#7C776F" />
<rect x="96" y="43" width="3" height="26" fill="#0E0D0E" />
<rect x="99" y="43" width="3" height="20" fill="#363D52" />
<rect x="70" y="46" width="3" height="12" fill="#B3AAA1" />
<rect x="73" y="46" width="3" height="9" fill="#0E0D0E" />
<rect x="76" y="46" width="3" height="12" fill="#B3AAA1" />
<rect x="79" y="46" width="3" height="9" fill="#0E0D0E" />
<rect x="82" y="46" width="3" height="9" fill="#B3AAA1" />
<rect x="85" y="46" width="2" height="9" fill="#0E0D0E" />
<rect x="87" y="46" width="3" height="6" fill="#B3AAA1" />
<rect x="14" y="50" width="9" height="3" fill="#363D52" />
<rect x="23" y="50" width="20" height="3" fill="#0E0D0E" />
<rect x="43" y="50" width="24" height="3" fill="#363D52" />
<rect x="87" y="52" width="3" height="6" fill="#EADFD1" />
<rect x="14" y="53" width="6" height="68" fill="#363D52" />
<rect x="20" y="53" width="6" height="3" fill="#0E0D0E" />
<rect x="26" y="53" width="14" height="3" fill="#D2202C" />
<rect x="40" y="53" width="6" height="3" fill="#0E0D0E" />
<rect x="46" y="53" width="21" height="6" fill="#363D52" />
<rect x="73" y="55" width="3" height="3" fill="#B3AAA1" />
<rect x="79" y="55" width="3" height="3" fill="#B3AAA1" />
<rect x="82" y="55" width="5" height="3" fill="#EADFD1" />
<rect x="20" y="56" width="3" height="6" fill="#0E0D0E" />
<rect x="23" y="56" width="3" height="3" fill="#D2202C" />
<rect x="26" y="56" width="6" height="6" fill="#0E0D0E" />
<rect x="32" y="56" width="11" height="3" fill="#D2202C" />
<rect x="43" y="56" width="3" height="6" fill="#0E0D0E" />
<rect x="70" y="58" width="20" height="3" fill="#0E0D0E" />
<rect x="93" y="58" width="3" height="5" fill="#EADFD1" />
<rect x="23" y="59" width="3" height="3" fill="#0E0D0E" />
<rect x="32" y="59" width="3" height="3" fill="#0E0D0E" />
<rect x="35" y="59" width="5" height="3" fill="#D2202C" />
<rect x="40" y="59" width="3" height="3" fill="#0E0D0E" />
<rect x="46" y="59" width="9" height="3" fill="#0E0D0E" />
<rect x="55" y="59" width="12" height="5" fill="#363D52" />
<rect x="67" y="61" width="3" height="60" fill="#363D52" />
<rect x="70" y="61" width="3" height="5" fill="#0E0D0E" />
<rect x="73" y="61" width="14" height="2" fill="#7C776F" />
<rect x="87" y="61" width="6" height="2" fill="#EADFD1" />
<rect x="20" y="62" width="6" height="20" fill="#363D52" />
<rect x="26" y="62" width="3" height="23" fill="#0E0D0E" />
<rect x="29" y="62" width="9" height="2" fill="#EADFD1" />
<rect x="38" y="62" width="14" height="2" fill="#7C776F" />
<rect x="52" y="62" width="3" height="5" fill="#0E0D0E" />
<rect x="73" y="63" width="12" height="3" fill="#0E0D0E" />
<rect x="85" y="63" width="5" height="9" fill="#D2202C" />
<rect x="90" y="63" width="6" height="3" fill="#0E0D0E" />
<rect x="99" y="63" width="6" height="3" fill="#0E0D0E" />
<rect x="105" y="63" width="6" height="58" fill="#363D52" />
<rect x="29" y="64" width="3" height="3" fill="#EADFD1" />
<rect x="32" y="64" width="20" height="3" fill="#0E0D0E" />
<rect x="55" y="64" width="3" height="21" fill="#0E0D0E" />
<rect x="58" y="64" width="9" height="57" fill="#363D52" />
<rect x="70" y="66" width="9" height="55" fill="#363D52" />
<rect x="79" y="66" width="3" height="6" fill="#0E0D0E" />
<rect x="82" y="66" width="3" height="3" fill="#D2202C" />
<rect x="90" y="66" width="3" height="6" fill="#D2202C" />
<rect x="93" y="66" width="3" height="3" fill="#0E0D0E" />
<rect x="99" y="66" width="3" height="3" fill="#D2202C" />
<rect x="102" y="66" width="3" height="6" fill="#0E0D0E" />
<rect x="29" y="67" width="3" height="15" fill="#7C776F" />
<rect x="32" y="67" width="3" height="18" fill="#0E0D0E" />
<rect x="35" y="67" width="8" height="3" fill="#EADFD1" />
<rect x="43" y="67" width="12" height="3" fill="#B3AAA1" />
<rect x="82" y="69" width="3" height="6" fill="#0E0D0E" />
<rect x="93" y="69" width="6" height="3" fill="#D2202C" />
<rect x="99" y="69" width="3" height="6" fill="#0E0D0E" />
<rect x="35" y="70" width="3" height="3" fill="#EADFD1" />
<rect x="38" y="70" width="2" height="9" fill="#0E0D0E" />
<rect x="40" y="70" width="3" height="12" fill="#B3AAA1" />
<rect x="43" y="70" width="3" height="9" fill="#0E0D0E" />
<rect x="46" y="70" width="3" height="12" fill="#B3AAA1" />
<rect x="49" y="70" width="3" height="9" fill="#0E0D0E" />
<rect x="52" y="70" width="3" height="12" fill="#B3AAA1" />
<rect x="79" y="72" width="3" height="49" fill="#363D52" />
<rect x="85" y="72" width="14" height="3" fill="#0E0D0E" />
<rect x="102" y="72" width="3" height="49" fill="#363D52" />
<rect x="35" y="73" width="3" height="9" fill="#B3AAA1" />
<rect x="82" y="75" width="20" height="46" fill="#363D52" />
<rect x="38" y="79" width="2" height="3" fill="#B3AAA1" />
<rect x="43" y="79" width="3" height="3" fill="#B3AAA1" />
<rect x="49" y="79" width="3" height="3" fill="#B3AAA1" />
<rect x="20" y="82" width="3" height="39" fill="#363D52" />
<rect x="23" y="82" width="3" height="23" fill="#0E0D0E" />
<rect x="29" y="82" width="3" height="3" fill="#0E0D0E" />
<rect x="35" y="82" width="20" height="3" fill="#0E0D0E" />
<rect x="26" y="85" width="9" height="14" fill="#0A7030" />
<rect x="35" y="85" width="17" height="3" fill="#EBA724" />
<rect x="52" y="85" width="3" height="17" fill="#0E0D0E" />
<rect x="55" y="85" width="3" height="36" fill="#363D52" />
<rect x="35" y="88" width="3" height="14" fill="#EBA724" />
<rect x="38" y="88" width="14" height="3" fill="#0E0D0E" />
<rect x="38" y="91" width="2" height="14" fill="#0E0D0E" />
<rect x="40" y="91" width="12" height="5" fill="#7C776F" />
<rect x="40" y="96" width="6" height="6" fill="#0E0D0E" />
<rect x="46" y="96" width="6" height="3" fill="#B3AAA1" />
<rect x="26" y="99" width="9" height="3" fill="#EBA724" />
<rect x="46" y="99" width="3" height="3" fill="#B3AAA1" />
<rect x="49" y="99" width="3" height="6" fill="#0E0D0E" />
<rect x="26" y="102" width="12" height="3" fill="#0E0D0E" />
<rect x="40" y="102" width="3" height="19" fill="#363D52" />
<rect x="43" y="102" width="6" height="3" fill="#0E0D0E" />
<rect x="52" y="102" width="3" height="19" fill="#363D52" />
<rect x="23" y="105" width="17" height="16" fill="#363D52" />
<rect x="43" y="105" width="9" height="16" fill="#363D52" />
<rect x="0" y="111" width="1" height="1" fill="#212532" opacity="0.996078" />
<rect x="4" y="111" width="1" height="1" fill="#32394C" />
<rect x="120" y="111" width="1" height="1" fill="#32394C" />
<rect x="124" y="111" width="1" height="1" fill="#212532" opacity="0.996078" />
<rect x="0" y="112" width="1" height="1" fill="#212532" opacity="0.937255" />
<rect x="4" y="112" width="1" height="1" fill="#2D3344" />
<rect x="120" y="112" width="1" height="1" fill="#2D3344" />
<rect x="124" y="112" width="1" height="1" fill="#212532" opacity="0.937255" />
<rect x="0" y="113" width="1" height="1" fill="#212532" opacity="0.752941" />
<rect x="4" y="113" width="1" height="1" fill="#262B3A" />
<rect x="120" y="113" width="1" height="1" fill="#262B3A" />
<rect x="124" y="113" width="1" height="1" fill="#212532" opacity="0.752941" />
<rect x="0" y="114" width="1" height="1" fill="#212532" opacity="0.341176" />
<rect x="4" y="114" width="1" height="6" fill="#212532" />
<rect x="5" y="114" width="1" height="1" fill="#31374A" />
<rect x="119" y="114" width="1" height="1" fill="#31374A" />
<rect x="120" y="114" width="1" height="6" fill="#212532" />
<rect x="124" y="114" width="1" height="1" fill="#212532" opacity="0.341176" />
<rect x="1" y="115" width="1" height="1" fill="#212532" opacity="0.984314" />
<rect x="5" y="115" width="1" height="1" fill="#262B3A" />
<rect x="119" y="115" width="1" height="1" fill="#262B3A" />
<rect x="123" y="115" width="1" height="1" fill="#212532" opacity="0.984314" />
<rect x="1" y="116" width="1" height="1" fill="#212532" opacity="0.611765" />
<rect x="5" y="116" width="1" height="5" fill="#212532" />
<rect x="6" y="116" width="1" height="1" fill="#2D3344" />
<rect x="118" y="116" width="1" height="1" fill="#2D3344" />
<rect x="119" y="116" width="1" height="5" fill="#212532" />
<rect x="123" y="116" width="1" height="1" fill="#212532" opacity="0.611765" />
<rect x="2" y="117" width="1" height="1" fill="#212532" opacity="0.964706" />
<rect x="6" y="117" width="1" height="5" fill="#212532" />
<rect x="7" y="117" width="1" height="1" fill="#2E3446" />
<rect x="117" y="117" width="1" height="1" fill="#2E3446" />
<rect x="118" y="117" width="1" height="5" fill="#212532" />
<rect x="122" y="117" width="1" height="1" fill="#212532" opacity="0.964706" />
<rect x="2" y="118" width="1" height="1" fill="#212532" opacity="0.341176" />
<rect x="7" y="118" width="1" height="4" fill="#212532" />
<rect x="8" y="118" width="1" height="1" fill="#2D3344" />
<rect x="116" y="118" width="1" height="1" fill="#2D3344" />
<rect x="117" y="118" width="1" height="4" fill="#212532" />
<rect x="122" y="118" width="1" height="1" fill="#212532" opacity="0.341176" />
<rect x="3" y="119" width="1" height="1" fill="#212532" opacity="0.611765" />
<rect x="8" y="119" width="1" height="4" fill="#212532" />
<rect x="9" y="119" width="1" height="1" fill="#262B3A" />
<rect x="10" y="119" width="1" height="1" fill="#31374A" />
<rect x="114" y="119" width="1" height="1" fill="#31374A" />
<rect x="115" y="119" width="1" height="1" fill="#262B3A" />
<rect x="116" y="119" width="1" height="4" fill="#212532" />
<rect x="121" y="119" width="1" height="1" fill="#212532" opacity="0.611765" />
<rect x="4" y="120" width="1" height="1" fill="#212532" opacity="0.611765" />
<rect x="9" y="120" width="2" height="3" fill="#212532" />
<rect x="11" y="120" width="1" height="1" fill="#262B3A" />
<rect x="12" y="120" width="1" height="1" fill="#2D3344" />
<rect x="13" y="120" width="1" height="1" fill="#32394C" />
<rect x="111" y="120" width="1" height="1" fill="#32394C" />
<rect x="112" y="120" width="1" height="1" fill="#2E3446" />
<rect x="113" y="120" width="1" height="1" fill="#262B3A" />
<rect x="114" y="120" width="2" height="3" fill="#212532" />
<rect x="120" y="120" width="1" height="1" fill="#212532" opacity="0.611765" />
<rect x="5" y="121" width="1" height="1" fill="#212532" opacity="0.611765" />
<rect x="11" y="121" width="103" height="3" fill="#212532" />
<rect x="119" y="121" width="1" height="1" fill="#212532" opacity="0.611765" />
<rect x="6" y="122" width="1" height="1" fill="#212532" opacity="0.341176" />
<rect x="7" y="122" width="1" height="1" fill="#212532" opacity="0.964706" />
<rect x="117" y="122" width="1" height="1" fill="#212532" opacity="0.964706" />
<rect x="118" y="122" width="1" height="1" fill="#212532" opacity="0.341176" />
<rect x="8" y="123" width="1" height="1" fill="#212532" opacity="0.611765" />
<rect x="9" y="123" width="1" height="1" fill="#212532" opacity="0.984314" />
<rect x="10" y="123" width="1" height="1" fill="#212532" />
<rect x="114" y="123" width="1" height="1" fill="#212532" />
<rect x="115" y="123" width="1" height="1" fill="#212532" opacity="0.984314" />
<rect x="116" y="123" width="1" height="1" fill="#212532" opacity="0.611765" />
<rect x="10" y="124" width="1" height="1" fill="#212532" opacity="0.341176" />
<rect x="11" y="124" width="1" height="1" fill="#212532" opacity="0.752941" />
<rect x="12" y="124" width="1" height="1" fill="#212532" opacity="0.937255" />
<rect x="13" y="124" width="1" height="1" fill="#212532" opacity="0.996078" />
<rect x="14" y="124" width="97" height="1" fill="#212532" />
<rect x="111" y="124" width="1" height="1" fill="#212532" opacity="0.996078" />
<rect x="112" y="124" width="1" height="1" fill="#212532" opacity="0.937255" />
<rect x="113" y="124" width="1" height="1" fill="#212532" opacity="0.752941" />
<rect x="114" y="124" width="1" height="1" fill="#212532" opacity="0.341176" />
</svg>